<svg width="407" height="407" viewBox="0 0 407 407" fill="none" xmlns="http://www.w3.org/2000/svg">
<g clip-path="url(#clip0_180_19)">
<path d="M407 0H0V407H407V0Z" fill="#1A3553"/>
<path d="M296.75 112.5L274 135.25C291.875 154.75 301.625 179.125 301.625 205.125C301.625 231.125 291.875 255.5 272.375 273.375C254.5 292.875 230.125 302.625 204.125 302.625C178.125 302.625 153.75 292.875 135.875 273.375C116.375 255.5 106.625 231.125 106.625 205.125C106.625 179.125 116.375 154.75 135.875 136.875L111.5 112.5C87.125 138.5 74.125 171 74.125 205.125C74.125 239.25 87.125 271.75 111.5 297.75C137.5 322.125 170 335.125 204.125 335.125C238.25 335.125 270.75 322.125 296.75 297.75C321.125 273.375 334.125 240.875 334.125 205.125C334.125 171 321.125 138.5 296.75 112.5Z" fill="white"/>
<path d="M129.375 195.375L204.125 270.125L278.875 195.375L256.125 172.625L220.375 208.375V75.125H187.875V208.375L152.125 172.625L129.375 195.375Z" fill="white"/>
</g>
<defs>
<clipPath id="clip0_180_19">
<rect width="407" height="407" fill="white"/>
</clipPath>
</defs>
</svg>
